<?xml version="1.0" encoding="UTF-8"?>
<svg width="260px" height="260px" viewBox="0 0 260 260" version="1.1" xmlns="http://www.w3.org/2000/svg" xmlns:xlink="http://www.w3.org/1999/xlink">
    <title>Strapi Bookmarks</title>
    <g id="Page-1" stroke="none" stroke-width="1" fill="none" fill-rule="evenodd">
        <g id="Strapi-Bookmarks">
            <rect id="Transparent-square" x="0" y="0" width="260" height="260"></rect>
            <path d="M88.1570487,141.50239 L169.333229,141.50239 C170.735235,141.50239 171.871785,142.63894 171.871785,144.040947 L171.871785,225.308418 L93.2341621,225.308418 C90.4301498,225.308418 88.1570487,223.035317 88.1570487,220.231304 L88.1570487,141.50239 Z" id="Main-Shadow" fill="#4B3F7B" fill-rule="nonzero" transform="translate(130.014417, 183.405404) rotate(-45.000000) translate(-130.014417, -183.405404) "></path>
            <path d="M15.6217315,8.39255583 L15.6217315,252.239752 C15.6217315,253.896607 16.9648773,255.239752 18.6217315,255.239752 C19.4324047,255.239752 20.2085698,254.911668 20.7734645,254.330218 L127.034547,144.954824 C128.573923,143.370331 131.106319,143.333757 132.690811,144.873134 C132.721779,144.90322 132.752259,144.933806 132.782236,144.964879 L238.248971,254.285392 C239.399338,255.477794 241.298527,255.511869 242.490929,254.361502 C243.076975,253.796116 243.408005,253.016785 243.408005,252.202468 L243.408005,8.39255583 C243.408005,6.18341683 241.617144,4.39255583 239.408005,4.39255583 L19.6217315,4.39255583 C17.4125925,4.39255583 15.6217315,6.18341683 15.6217315,8.39255583 Z" id="Bookmarks" stroke="#8E75FF" fill="#8E75FF"></path>
            <path d="M123.734778,127.365152 L93.5794876,156.885813 C92.7901775,157.658511 91.5239191,157.645045 90.7512204,156.855735 C90.2621557,156.356157 90.0694533,155.637466 90.2429785,154.960227 L103.050337,104.975332 C103.949437,101.4663 102.378499,97.7910094 99.2208177,96.0159774 L60.7034878,74.3641713 C59.7406205,73.8229132 59.3988387,72.6035786 59.9400968,71.6407113 C60.2761327,71.0429225 60.8950118,70.6589806 61.5798535,70.6234344 L106.572518,68.2881269 C109.858169,68.1175879 112.704382,65.9528537 113.746183,62.8320788 L127.352143,22.0746323 C127.701905,21.0269011 128.834796,20.4610849 129.882528,20.8108465 C130.465186,21.0053539 130.926145,21.456822 131.13273,22.0353082 L145.757874,62.9891065 C146.842885,66.0273884 149.646702,68.1166103 152.868384,68.2873959 L196.994622,70.6265862 C198.097642,70.6850588 198.944416,71.6266352 198.885943,72.7296559 C198.850249,73.4029837 198.477682,74.0130013 197.894959,74.3522319 L160.675357,96.0194929 C157.612753,97.8023766 156.088046,101.387655 156.928378,104.830336 L168.908094,153.908929 C169.170021,154.981994 168.512464,156.064219 167.439399,156.326146 C166.786303,156.485561 166.096807,156.306195 165.604187,155.848731 L134.774962,127.219675 C131.645867,124.313892 126.786221,124.377928 123.734778,127.365152 Z" id="Star" fill="#FFFFFF"></path>
        </g>
    </g>
</svg>